<?xml version="1.0" encoding="utf-8"?>
<!DOCTYPE svg PUBLIC "-//W3C//DTD SVG 1.1//EN" "http://www.w3.org/Graphics/SVG/1.1/DTD/svg11.dtd">
<svg version="1.1" id="Layer_1" xmlns="http://www.w3.org/2000/svg" xmlns:xlink="http://www.w3.org/1999/xlink" x="0px" y="0px"
	 width="279.9px" height="92.3px" viewBox="0 0 279.9 92.3" xml:space="preserve">
<g>
	<linearGradient id="SVGID_1_" gradientUnits="userSpaceOnUse" x1="46.2925" y1="62.5444" x2="46.2925" y2="4.882813e-004">
		<stop  offset="0" style="stop-color:#00AEEF"/>
		<stop  offset="0.34" style="stop-color:#00AEEF"/>
		<stop  offset="0.5" style="stop-color:#B9E5FB"/>
		<stop  offset="0.66" style="stop-color:#00AEEF"/>
		<stop  offset="1" style="stop-color:#00AEEF"/>
	</linearGradient>
	<path fill="url(#SVGID_1_)" d="M0,0h4.3h7.5h30.1l3,11.4H14.7l3.8,14.5h25.3l3,11.4H21.5l3.7,14h30.1l3,11.4H28.2h-7.5h-4.3L0,0
		L0,0z M41.8,0l16.5,62.5h9.2L92.6,0H80.5L64.4,41.7L53.9,0H41.8L41.8,0z"/>
	<g>
		<path fill="#00A14B" d="M37.9,91.8H16.5V63h20.9v5.7H22.2v4.7h8.7v5.8h-8.7v6.8h15.7V91.8z"/>
		<path fill="#00A14B" d="M47.1,63l7.4,20.2L61.6,63h6l-10,28.8h-6L41,63H47.1z"/>
		<path fill="#00A14B" d="M81.4,63h5.9l11.6,28.8h-6.1L90.1,85H78.7L76,91.8h-6.1L81.4,63z M87.7,79.3l-3.2-8.1L81,79.3H87.7z"/>
		<path fill="#00A14B" d="M104.1,63h5.7l12,17.5V63h5.6v28.8h-4.9l-12.8-18.5v18.5h-5.6V63z"/>
		<path fill="#00A14B" d="M157.7,77.3c-0.5,10-4.4,15-11.6,15c-3.9,0-6.9-1.6-9.1-4.7c-1.8-2.7-2.7-6.2-2.7-10.3c0-4,0.9-7.3,2.7-10
			c2.1-3.2,5-4.7,8.8-4.7c5.3,0,8.9,2.4,10.8,7.1l-5.3,2c-0.8-2.2-2.5-3.3-5.1-3.3c-4,0-6,3-6,8.9c0,2.5,0.4,4.5,1.1,6
			c1,2.1,2.6,3.2,4.8,3.2c2.4,0,4.1-1.1,5.2-3.4h-3.4v-5.8H157.7z"/>
		<path fill="#00A14B" d="M186,91.8h-21.3V63h20.9v5.7h-15.3v4.7h8.7v5.8h-8.7v6.8H186V91.8z"/>
		<path fill="#00A14B" d="M192,63h5.6v23.4h15.7v5.3H192V63z"/>
		<path fill="#00A14B" d="M217.9,63h5.8v28.8h-5.8V63z"/>
		<path fill="#00A14B" d="M235,83.4c2,2,4.5,3.1,7.6,3.1c4.1,0,6.1-1,6.1-2.9c0-1.6-1.1-2.7-3.3-3.4c-2.3-0.5-4.5-1-6.7-1.6
			c-2.7-0.8-4.6-2.2-5.5-4.1c-0.6-1.2-0.9-2.3-0.9-3.5c0-2.6,1-4.6,3-6.2c1.9-1.5,4.1-2.2,6.7-2.2c3.9,0,7,0.7,9.2,2.2
			c0.8,0.6,1.4,1,1.8,1.3l-3.5,4.5c-2.1-1.5-4.3-2.3-6.8-2.3c-3.2,0-4.8,0.9-4.8,2.6c0,0.9,0.4,1.5,1.2,1.9c0.6,0.3,1.4,0.5,2.4,0.7
			c0.8,0.1,1.7,0.3,2.6,0.4c6.8,1.2,10.2,4.3,10.2,9.4c0,1.5-0.4,3-1.1,4.3c-1.8,3.1-5.3,4.6-10.5,4.6c-4.3,0-8.2-1.6-11.7-4.8
			L235,83.4z"/>
		<path fill="#00A14B" d="M266.5,68.8h-7.9V63h21.3v5.7H272v23.1h-5.5V68.8z"/>
	</g>
</g>
</svg>
